<?xml version="1.0" encoding="utf-8"?>
<!-- Generator: Adobe Illustrator 16.0.0, SVG Export Plug-In . SVG Version: 6.00 Build 0)  -->
<!DOCTYPE svg PUBLIC "-//W3C//DTD SVG 1.1//EN" "http://www.w3.org/Graphics/SVG/1.1/DTD/svg11.dtd">
<svg version="1.1" xmlns="http://www.w3.org/2000/svg" xmlns:xlink="http://www.w3.org/1999/xlink" x="0px" y="0px"
	 width="517.475px" height="647px" viewBox="0 0 517.475 647" enable-background="new 0 0 517.475 647" xml:space="preserve">
<g id="Layer_9">
</g>
<g id="Layer_7">
</g>
<g id="Layer_8">
</g>
<g id="Layer_6">
</g>
<g id="Layer_5">
</g>
<g id="Layer_4">
</g>
<g id="Layer_2">
	<g opacity="0.9">
		<g id="Nuva_Logo_37_">
			<path fill="#558B2F" d="M38.554,78.809c-0.498,0.153-1.257,0.039-1.688-0.255L13.74,62.777c-0.431-0.294-0.814-0.959-0.853-1.479
				l-2.094-27.913c-0.039-0.52,0.241-1.234,0.623-1.589L31.93,12.76c0.382-0.354,1.116-0.581,1.631-0.503l27.672,4.169
				c0.515,0.078,1.149,0.51,1.409,0.961l13.997,24.248c0.26,0.451,0.317,1.217,0.127,1.702l-10.22,26.062
				c-0.19,0.485-0.753,1.007-1.251,1.161L38.554,78.809L38.554,78.809z"/>
		</g>
	</g>
	<g opacity="0.9">
		<g id="Nuva_Logo_36_">
			<path fill="#558B2F" d="M148.51,276.827c-0.498,0.153-1.257,0.039-1.688-0.255l-23.126-15.777
				c-0.431-0.294-0.814-0.959-0.853-1.479l-2.094-27.913c-0.039-0.52,0.241-1.234,0.623-1.589l20.513-19.037
				c0.382-0.354,1.116-0.581,1.631-0.503l27.672,4.169c0.515,0.078,1.149,0.51,1.409,0.961l13.997,24.248
				c0.26,0.451,0.317,1.217,0.127,1.702l-10.22,26.062c-0.19,0.485-0.753,1.007-1.251,1.161L148.51,276.827L148.51,276.827z"/>
		</g>
	</g>
	<g opacity="0.9">
		<g id="Nuva_Logo_35_">
			<path fill="#558B2F" d="M174.618,414.957c-0.374,0.115-0.943,0.029-1.267-0.191l-17.349-11.836c-0.322-0.22-0.61-0.72-0.64-1.109
				l-1.57-20.939c-0.029-0.39,0.181-0.926,0.468-1.192l15.388-14.281c0.287-0.266,0.838-0.436,1.224-0.377l20.759,3.127
				c0.386,0.059,0.862,0.383,1.058,0.721l10.5,18.19c0.194,0.339,0.238,0.914,0.095,1.277l-7.666,19.551
				c-0.143,0.364-0.565,0.756-0.938,0.871L174.618,414.957L174.618,414.957z"/>
		</g>
	</g>
	<g opacity="0.9">
		<g id="Nuva_Logo_34_">
			<path fill="#558B2F" d="M295.88,498.826c-0.378,0.115-0.955,0.029-1.282-0.194l-17.581-11.994
				c-0.328-0.224-0.619-0.729-0.648-1.124l-1.592-21.22c-0.029-0.395,0.184-0.938,0.474-1.208l15.595-14.472
				c0.29-0.27,0.849-0.442,1.239-0.383l21.037,3.169c0.392,0.059,0.874,0.388,1.071,0.731l10.642,18.434
				c0.197,0.344,0.241,0.926,0.097,1.295l-7.77,19.813c-0.146,0.368-0.572,0.767-0.951,0.883L295.88,498.826L295.88,498.826z"/>
		</g>
	</g>
	<g opacity="0.9">
		<g id="Nuva_Logo_33_">
			<path fill="#558B2F" d="M233.722,156.223c-0.348,0.107-0.877,0.027-1.177-0.178l-16.126-11c-0.3-0.205-0.567-0.669-0.594-1.031
				l-1.461-19.463c-0.026-0.362,0.169-0.86,0.436-1.108l14.303-13.274c0.267-0.248,0.778-0.406,1.137-0.351l19.295,2.907
				c0.359,0.054,0.802,0.356,0.983,0.67l9.76,16.907c0.181,0.315,0.222,0.849,0.089,1.187l-7.127,18.173
				c-0.132,0.338-0.524,0.702-0.871,0.81L233.722,156.223L233.722,156.223z"/>
		</g>
	</g>
	<g opacity="0.9">
		<g id="Nuva_Logo_32_">
			<path fill="#558B2F" d="M181.554,73.25c-0.498,0.153-1.257,0.039-1.688-0.255L156.74,57.218
				c-0.431-0.294-0.814-0.959-0.853-1.479l-2.094-27.913c-0.039-0.52,0.241-1.234,0.623-1.589L174.93,7.201
				c0.382-0.354,1.116-0.581,1.631-0.503l27.672,4.169c0.515,0.078,1.149,0.51,1.409,0.961l13.997,24.248
				c0.26,0.451,0.317,1.217,0.127,1.702l-10.22,26.062c-0.19,0.485-0.753,1.007-1.251,1.161L181.554,73.25L181.554,73.25z"/>
		</g>
	</g>
	<g opacity="0.9">
		<g id="Nuva_Logo_31_">
			<path fill="#558B2F" d="M349.386,283.467c-0.498,0.153-1.257,0.039-1.688-0.255l-23.126-15.777
				c-0.431-0.294-0.814-0.959-0.853-1.479l-2.094-27.913c-0.039-0.52,0.241-1.234,0.623-1.589l20.513-19.037
				c0.382-0.354,1.116-0.581,1.631-0.503l27.672,4.169c0.515,0.078,1.149,0.51,1.409,0.961l13.997,24.248
				c0.26,0.451,0.317,1.217,0.127,1.702l-10.22,26.062c-0.19,0.485-0.753,1.007-1.251,1.161L349.386,283.467L349.386,283.467z"/>
		</g>
	</g>
	<g opacity="0.9">
		<g id="Nuva_Logo_30_">
			<path fill="#558B2F" d="M403.218,113.08c-0.842,0.259-2.125,0.066-2.853-0.431l-39.091-26.668
				c-0.728-0.497-1.377-1.622-1.44-2.499l-3.54-47.181c-0.065-0.878,0.408-2.087,1.054-2.686l34.673-32.179
				c0.646-0.599,1.887-0.982,2.757-0.85l46.774,7.047c0.87,0.131,1.943,0.862,2.382,1.625l23.66,40.986
				c0.438,0.763,0.536,2.058,0.214,2.877l-17.274,44.054c-0.321,0.819-1.272,1.703-2.114,1.962L403.218,113.08L403.218,113.08z"/>
		</g>
	</g>
	<g opacity="0.9">
		<g id="Nuva_Logo_29_">
			<path fill="#558B2F" d="M434.404,399.841c-0.262,0.081-0.661,0.021-0.888-0.134l-12.174-8.305
				c-0.227-0.155-0.429-0.505-0.448-0.778l-1.103-14.693c-0.021-0.273,0.127-0.65,0.328-0.836l10.798-10.021
				c0.201-0.187,0.588-0.306,0.858-0.265l14.566,2.194c0.271,0.041,0.604,0.269,0.741,0.506l7.368,12.764
				c0.137,0.237,0.167,0.641,0.066,0.896l-5.379,13.719c-0.101,0.255-0.396,0.53-0.658,0.611L434.404,399.841L434.404,399.841z"/>
		</g>
	</g>
	<g opacity="0.9">
		<g id="Nuva_Logo_28_">
			<path fill="#558B2F" d="M472.163,350.103c-0.498,0.153-1.257,0.039-1.688-0.255l-23.126-15.777
				c-0.431-0.294-0.814-0.959-0.853-1.479l-2.094-27.913c-0.039-0.52,0.241-1.234,0.623-1.589l20.513-19.037
				c0.382-0.354,1.116-0.581,1.631-0.503l27.672,4.169c0.515,0.078,1.149,0.51,1.409,0.961l13.997,24.248
				c0.26,0.451,0.317,1.217,0.127,1.702l-10.22,26.062c-0.19,0.485-0.753,1.007-1.251,1.161L472.163,350.103L472.163,350.103z"/>
		</g>
	</g>
	<g opacity="0.9">
		<g id="Nuva_Logo_27_">
			<path fill="#558B2F" d="M200.588,567.687c-0.262,0.081-0.661,0.021-0.888-0.134l-12.174-8.305
				c-0.227-0.155-0.429-0.506-0.448-0.779l-1.103-14.692c-0.021-0.273,0.127-0.649,0.328-0.837l10.798-10.021
				c0.201-0.187,0.588-0.306,0.858-0.265l14.566,2.194c0.271,0.041,0.604,0.269,0.741,0.507l7.368,12.764
				c0.137,0.236,0.167,0.641,0.066,0.896l-5.379,13.719c-0.101,0.255-0.396,0.53-0.658,0.611L200.588,567.687L200.588,567.687z"/>
		</g>
	</g>
	<g opacity="0.9">
		<g id="Nuva_Logo_26_">
			<path fill="#558B2F" d="M352.741,631.831c-0.334,0.104-0.844,0.026-1.134-0.171l-15.537-10.6
				c-0.289-0.197-0.547-0.646-0.571-0.994l-1.408-18.752c-0.025-0.349,0.162-0.828,0.419-1.067l13.781-12.789
				c0.257-0.238,0.751-0.391,1.096-0.338l18.591,2.801c0.346,0.052,0.771,0.343,0.946,0.646l9.403,16.29
				c0.175,0.302,0.213,0.817,0.085,1.143l-6.865,17.51c-0.128,0.325-0.506,0.677-0.84,0.779L352.741,631.831L352.741,631.831z"/>
		</g>
	</g>
	<g opacity="0.9">
		<g id="Nuva_Logo_25_">
			<path fill="#558B2F" d="M472.163,642.744c-0.498,0.152-1.257,0.039-1.688-0.256l-23.126-15.776
				c-0.431-0.294-0.814-0.96-0.853-1.479l-2.094-27.913c-0.039-0.52,0.241-1.234,0.623-1.588l20.513-19.037
				c0.382-0.355,1.116-0.582,1.631-0.504l27.672,4.17c0.515,0.077,1.149,0.51,1.409,0.961l13.997,24.248
				c0.26,0.451,0.317,1.217,0.127,1.701l-10.22,26.063c-0.19,0.484-0.753,1.008-1.251,1.161L472.163,642.744L472.163,642.744z"/>
		</g>
	</g>
</g>
<g id="Layer_3">
</g>
<g id="Layer_1">
</g>
</svg>
