<?xml version="1.0" encoding="utf-8"?>
<!-- Generator: Adobe Illustrator 16.0.0, SVG Export Plug-In . SVG Version: 6.00 Build 0)  -->
<!DOCTYPE svg PUBLIC "-//W3C//DTD SVG 1.1//EN" "http://www.w3.org/Graphics/SVG/1.1/DTD/svg11.dtd">
<svg version="1.1" xmlns="http://www.w3.org/2000/svg" xmlns:xlink="http://www.w3.org/1999/xlink" x="0px" y="0px"
	 width="350.982px" height="645px" viewBox="0 0 350.982 645" enable-background="new 0 0 350.982 645" xml:space="preserve">
<g id="Layer_9">
</g>
<g id="Layer_7">
</g>
<g id="Layer_8">
</g>
<g id="Layer_6">
	<polygon opacity="0.8" fill="#E65100" points="246,77 200,139 276,215 	"/>
	<polygon opacity="0.8" fill="#E65100" points="82,146 152,157.951 107.609,216 	"/>
	<polygon opacity="0.8" fill="#E65100" points="228.869,492 157,568 215.239,539.087 	"/>
	<polygon opacity="0.8" fill="#E65100" points="41,486 28,551.5 80.679,590.5 	"/>
	<polygon opacity="0.8" fill="#E65100" points="315,10 289.667,115 349,36 	"/>
	<polygon opacity="0.8" fill="#E65100" points="160,353 189,331 192,459.359 	"/>
	<polygon opacity="0.8" fill="#E65100" points="124.91,444 101,476 157,451.924 	"/>
	<polygon opacity="0.8" fill="#E65100" points="107.457,568 107.457,591 136.457,579.5 	"/>
	<polygon opacity="0.8" fill="#E65100" points="169.457,276 205.457,276 176,250 	"/>
	<polygon opacity="0.8" fill="#E65100" points="37.498,314.941 54.34,275.75 80.679,340.18 	"/>
	<polygon opacity="0.8" fill="#E65100" points="304.457,286.442 275.973,322.5 304.457,307.965 	"/>
	<polygon opacity="0.8" fill="#E65100" points="265.457,414.723 244.459,444 265.457,464 	"/>
	<polygon opacity="0.8" fill="#E65100" points="28,78.5 136.457,10 129,77 	"/>
</g>
<g id="Layer_5">
</g>
<g id="Layer_4">
</g>
<g id="Layer_2">
</g>
<g id="Layer_3">
</g>
<g id="Layer_1">
</g>
</svg>
