<?xml version="1.0" encoding="utf-8"?>
<!-- Generator: Adobe Illustrator 16.0.0, SVG Export Plug-In . SVG Version: 6.00 Build 0)  -->
<!DOCTYPE svg PUBLIC "-//W3C//DTD SVG 1.1//EN" "http://www.w3.org/Graphics/SVG/1.1/DTD/svg11.dtd">
<svg version="1.1" xmlns="http://www.w3.org/2000/svg" xmlns:xlink="http://www.w3.org/1999/xlink" x="0px" y="0px"
	 width="187.49px" height="173.383px" viewBox="0 0 187.49 173.383" enable-background="new 0 0 187.49 173.383"
	 xml:space="preserve">
<g id="Layer_9">
</g>
<g id="Layer_7">
	<path fill="#F2F2F2" d="M170.572,77.501l-32.779-56.789c-0.61-1.055-2.096-2.069-3.304-2.25L69.684,8.696
		c-1.205-0.183-2.924,0.348-3.818,1.178L17.824,54.46c-0.895,0.83-1.553,2.505-1.461,3.721l4.902,65.372
		c0.092,1.216,0.99,2.774,1.999,3.462l54.161,36.951c1.009,0.688,2.787,0.956,3.953,0.597l62.628-19.319
		c1.167-0.359,2.483-1.583,2.929-2.72l23.938-61.038C171.316,80.351,171.184,78.558,170.572,77.501z M127.271,82.67l-10.28,26.212
		c-0.444,1.137-1.763,2.359-2.929,2.719l-26.896,8.296c-1.166,0.359-2.944,0.092-3.951-0.595l-23.26-15.869
		c-1.008-0.688-1.906-2.246-1.999-3.462l-2.104-28.075c-0.092-1.216,0.564-2.889,1.459-3.721l20.631-19.146
		c0.896-0.832,2.613-1.362,3.819-1.18l27.831,4.194c1.206,0.181,2.691,1.194,3.303,2.251l14.077,24.389
		C127.582,79.738,127.717,81.533,127.271,82.67z"/>
</g>
<g id="Layer_8">
</g>
<g id="Layer_6">
</g>
<g id="Layer_5">
</g>
<g id="Layer_4">
</g>
<g id="Layer_2">
</g>
<g id="Layer_3">
</g>
<g id="Layer_1">
</g>
</svg>
