<?xml version="1.0" encoding="utf-8"?>
<!-- Generator: Adobe Illustrator 16.0.0, SVG Export Plug-In . SVG Version: 6.00 Build 0)  -->
<!DOCTYPE svg PUBLIC "-//W3C//DTD SVG 1.1//EN" "http://www.w3.org/Graphics/SVG/1.1/DTD/svg11.dtd">
<svg version="1.1" xmlns="http://www.w3.org/2000/svg" xmlns:xlink="http://www.w3.org/1999/xlink" x="0px" y="0px"
	 width="350.982px" height="645px" viewBox="0 0 350.982 645" enable-background="new 0 0 350.982 645" xml:space="preserve">
<g id="Layer_9">
</g>
<g id="Layer_7">
	<polygon opacity="0.8" fill="#FFC107" points="38.484,227.577 80.846,211.509 85.229,305.258 	"/>
	<polygon opacity="0.8" fill="#FFC107" points="142.197,193 194.053,193 156.074,230.613 	"/>
	<polygon opacity="0.8" fill="#FFC107" points="10,9.729 55.283,62.514 61.856,15.039 	"/>
	<polygon opacity="0.8" fill="#FFC107" points="89.61,345.896 83.768,380.954 113.348,366.347 	"/>
	<polygon opacity="0.8" fill="#FFC107" points="148.771,47.176 191.132,31.107 195.514,124.857 	"/>
	<polygon fill="#FFC107" fill-opacity="0.8" points="22.416,105.605 87.419,74.199 101.296,164.766 	"/>
	<polygon fill="#FFC107" points="172.142,410.899 177.255,433.143 187.479,422.021 	"/>
	<polygon opacity="0.8" fill="#FFC107" points="34.709,454.766 55.991,483.23 65.896,451.762 	"/>
	<polygon fill="#FFC107" points="34.457,538 61.457,538 50.303,579.445 	"/>
	<polygon fill="#FFC107" points="142.197,305.258 142.712,310.711 148.771,374.938 195.514,363.426 	"/>
	<polygon fill="#FFC107" points="252.457,63 252.457,171 307.484,93.18 	"/>
	<polygon fill="#FFC107" points="229.488,230.613 212.989,276 325.483,231 	"/>
</g>
<g id="Layer_8">
</g>
<g id="Layer_6">
</g>
<g id="Layer_5">
</g>
<g id="Layer_4">
</g>
<g id="Layer_2">
</g>
<g id="Layer_3">
</g>
<g id="Layer_1">
</g>
</svg>
